# xmcd
#
# Track frame offsets:
# 150
# 8667
# 19288
# 29994
# 40100
# 50380
# 60827
# 73472
# 85034
# 95681
# 107672
# 118190
# 127583
# 139225
# 153240
# 162866
# 173648
# 183574
# 198556
# 207982
# 217457
# 230649
#
# Disc length: 3228 seconds
#
# Revision: 0
# Processed by: cddbd v1.5.2PL0 Copyright (c) Steve Scherf et al.
# Submitted via: Axialis_AX_CDPlayer 2.6
#
DISCID=3e0c9a16
DTITLE=Porter Wagoner - The Cold Hard Facts Of Life [CD3 of 3)
DYEAR=1900
DGENRE=
TTITLE0=The World Needs A Washin'
TTITLE1=Banks Of The Ohio
TTITLE2=Sing Me Back Home
TTITLE3=Barefoot Nellie
TTITLE4=Sorrow Overtakes The Wine
TTITLE5=Black Jack's Bar
TTITLE6=The Carroll Country Accident
TTITLE7=Rocky Top
TTITLE8=Your Mother's Eyes
TTITLE9=King Of The Cannon County Hills
TTITLE10=I Lived So Fast And Hard
TTITLE11=Fallen Leaves
TTITLE12=Here's A Toast To Mama
TTITLE13=Sidewalks Of Chicago
TTITLE14=The Silent Kind
TTITLE15=The Alley
TTITLE16=The Town Drunk
TTITLE17=Mama
TTITLE18=Bottle Of Wine
TTITLE19=One More Dime
TTITLE20=I Judged A Man
TTITLE21=When I Drink My Wine
EXTD=www.porterwagoner.com
EXTT0=
EXTT1=
EXTT2=
EXTT3=
EXTT4=
EXTT5=
EXTT6=
EXTT7=
EXTT8=
EXTT9=
EXTT10=
EXTT11=
EXTT12=
EXTT13=
EXTT14=
EXTT15=
EXTT16=
EXTT17=
EXTT18=
EXTT19=
EXTT20=
EXTT21=
PLAYORDER=
